<svg width="30" height="30" viewBox="0 0 225 225" fill="none" xmlns="http://www.w3.org/2000/svg">
  <g transform="translate(15, 15)">
    <path fill-rule="evenodd" clip-rule="evenodd" d="M64.4398 1.43684C36.8748 8.11584 17.6338 34.4568 7.7818 78.9998C1.4858 107.466 -2.31819 164.321 1.57281 171.8C7.07681 182.379 33.6258 193.579 66.1678 199.05C82.1028 201.729 116.925 202.841 129.269 201.066C159.146 196.768 185.841 179.109 196.64 156.5C201.316 146.711 202.526 140.149 201.968 127.606C201.524 117.632 201.25 116.506 197.343 108.621C192.254 98.3509 184.931 90.6999 175.395 85.6889C166.817 81.1809 160.972 79.8408 150.036 79.8728C132.107 79.9268 115.574 89.4709 106.943 104.75L103.977 110L98.3228 110.012C88.8368 110.032 78.4178 113.664 70.2388 119.802C67.4388 121.903 66.9388 122.039 67.5128 120.543C68.7528 117.313 69.9768 105.886 70.6238 91.4998C71.4278 73.6588 72.8568 63.6398 75.3578 58.3198C78.3268 52.0028 79.2588 51.5508 88.6498 51.8748C97.6548 52.1868 102.504 50.5758 106.801 45.8468C112.383 39.7048 113.84 29.2738 110.492 19.4278C108.213 12.7258 99.4418 3.95484 92.7398 1.67584C86.8408 -0.330155 72.2418 -0.454156 64.4398 1.43684Z" fill="#D2D8D1" />
    <path stroke="#000" stroke-width="16" stroke-linejoin="round" fill-rule="evenodd" clip-rule="evenodd" d="M64.6077 1.34535C72.4096 -0.545631 87.0084 -0.422312 92.9075 1.58363C99.6094 3.8626 108.38 12.6336 110.659 19.3356C114.007 29.1814 112.551 39.6125 106.969 45.7545C102.672 50.4835 97.8226 52.0948 88.8177 51.7829C79.4267 51.4589 78.4947 51.9112 75.5257 58.2282C73.0247 63.5482 71.5953 73.5671 70.7913 91.4079C70.1443 105.794 68.9209 117.221 67.6809 120.451C67.1069 121.947 67.6065 121.811 70.4065 119.71C78.5855 113.572 89.0046 109.94 98.4905 109.92L104.145 109.908L107.111 104.658C115.742 89.3789 132.274 79.835 150.203 79.7809C161.139 79.7489 166.985 81.0893 175.563 85.5973C185.099 90.6083 192.422 98.2591 197.511 108.529C201.418 116.414 201.692 117.54 202.136 127.514C202.694 140.057 201.484 146.619 196.808 156.408C186.009 179.017 159.314 196.676 129.437 200.974C117.093 202.749 82.2702 201.637 66.3352 198.958C33.7934 193.487 7.24448 182.287 1.74051 171.708C-2.1503 164.228 1.65355 107.374 7.94949 78.9079C17.8015 34.3649 37.0427 8.02436 64.6077 1.34535ZM90.3352 4.14809C84.7554 2.43916 80.2981 2.12309 73.3352 2.94008C33.2795 7.64629 10.2978 49.157 4.3948 127.464C3.81281 135.195 3.33524 147.583 3.33523 154.992C3.33523 172.463 3.76977 173.173 19.4925 181.384C41.1044 192.672 73.1734 199.038 108.335 199.018C126.96 199.008 137.213 197.325 150.835 192.047C163.415 187.171 171.08 182.16 180.874 172.408C194.097 159.241 199.49 147.191 199.492 130.808C199.493 117.378 194.873 106.286 185.283 96.6959C167.37 78.782 138.115 77.9322 119.177 94.7741C114.937 98.5451 108.335 107.195 108.335 108.98C108.336 109.381 110.699 110.258 113.585 110.93C120.161 112.461 132.335 118.695 132.335 120.532C132.335 122.45 132.125 122.391 122.988 117.907C108.612 110.852 94.7024 110.7 80.4544 117.442C71.9476 121.467 62.015 130.803 58.9339 137.669C57.1469 141.652 54.3352 143.46 54.3352 140.626C54.3357 139.921 56.4004 135.874 58.9231 131.634C61.4471 127.394 64.1566 121.559 64.9436 118.667C65.7316 115.773 67.019 103.057 67.805 90.4079C69.308 66.225 71.3077 57.7601 75.5257 52.3981L77.2464 49.7516L73.7903 46.2965C70.3816 42.8877 69.2868 39.9079 71.4417 39.9079C72.0497 39.9079 73.4424 41.0462 74.5364 42.4362C79.0635 48.1921 92.0739 51.1844 98.3919 47.9245C105.383 44.3164 109.434 38.1028 109.489 30.901C109.584 18.714 101.632 7.60909 90.3352 4.14809Z" fill="#000" />
  </g>
</svg>